<svg width="43" height="54" viewBox="0 0 43 54" fill="none" xmlns="http://www.w3.org/2000/svg">
<path d="M28.571 22.1265C28.1826 22.1265 27.8679 22.4753 27.8679 22.9058V24.287C27.8679 24.7176 28.1826 25.0664 28.571 25.0664C28.9595 25.0664 29.2742 24.7176 29.2742 24.287V22.9058C29.2742 22.4754 28.9595 22.1265 28.571 22.1265Z" fill="#747E89"/>
<path d="M13.5579 22.1265C13.1695 22.1265 12.8547 22.4753 12.8547 22.9058V24.287C12.8547 24.7176 13.1695 25.0664 13.5579 25.0664C13.9463 25.0664 14.261 24.7176 14.261 24.287V22.9058C14.261 22.4754 13.9463 22.1265 13.5579 22.1265Z" fill="#747E89"/>
<path d="M38.7155 17.6848C38.5399 16.1237 38.0471 14.7584 37.3019 13.8406V12.8194L39.424 7.40146C39.7676 6.52427 39.6564 5.54992 39.1267 4.79494C38.5971 4.04007 37.7725 3.68123 36.9206 3.83431L31.4013 4.82851C30.1846 5.04799 28.9455 4.75815 27.9122 4.01305L23.4191 0.773554C21.9887 -0.257851 20.1402 -0.257851 18.7098 0.773554L14.2167 4.01315C13.1836 4.75815 11.9445 5.04799 10.7277 4.82861L9.74819 4.65215C9.36485 4.58388 9.00372 4.87174 8.94138 5.29646C8.87913 5.72128 9.13928 6.12169 9.52263 6.19079L10.5021 6.36725C12.0652 6.64856 13.6564 6.27673 14.9836 5.31984L19.4768 2.08024C20.4414 1.38471 21.688 1.38471 22.6524 2.08024L27.1455 5.31984C28.4726 6.27673 30.0644 6.64866 31.627 6.36725L37.1464 5.37305C37.4824 5.31257 37.8079 5.45421 38.0169 5.75204C38.226 6.04988 38.2698 6.43438 38.1342 6.78054L36.0817 12.0208C32.8236 13.1473 30.091 13.705 24.01 13.8307C24.6691 12.954 25.0726 11.784 25.0726 10.5001C25.0726 7.78877 23.2746 5.58296 21.0645 5.58296C18.8546 5.58296 17.0564 7.78877 17.0564 10.5001C17.0564 11.7841 17.46 12.9541 18.1192 13.8308C12.0392 13.7053 9.30635 13.1476 6.04742 12.0209L3.99496 6.78075C3.85939 6.43448 3.90318 6.04998 4.11224 5.75215C4.3213 5.45421 4.64717 5.31257 4.9828 5.37315L6.26989 5.605C6.6536 5.67348 7.01445 5.38552 7.0767 4.96069C7.13895 4.53587 6.87879 4.13547 6.49545 4.06636L5.20845 3.83441C4.35683 3.68102 3.53211 4.04007 3.00243 4.79494C2.47274 5.54992 2.36146 6.52427 2.70505 7.40156L4.82717 12.8195V13.8407C4.08196 14.7583 3.58911 16.1237 3.41352 17.685C1.48171 18.0512 0 19.9301 0 22.1657C0 24.5109 1.61034 26.447 3.66983 26.6869C4.47964 31.7505 7.05138 36.1469 10.6545 39.07C7.95204 41.6582 6.10939 45.1656 5.43036 49.0535C5.25102 50.0802 5.49242 51.1317 6.09279 51.9384C6.69279 52.7447 7.57779 53.2072 8.52063 53.2072H28.6179C29.0063 53.2072 29.3211 52.8583 29.3211 52.4278C29.3211 51.9972 29.0063 51.6484 28.6179 51.6484H21.7677V43.3125L24.9059 45.0186C24.6804 45.5999 24.563 46.2353 24.563 46.8941C24.563 49.3127 26.1707 51.2804 28.1469 51.2804C30.1231 51.2804 31.731 49.3128 31.731 46.8941C31.731 44.4755 30.1233 42.5079 28.1469 42.5079C28.0673 42.5079 27.9881 42.5121 27.9092 42.5185L27.9676 41.2842C28.7632 40.9084 29.5289 40.4697 30.2598 39.9738C32.8851 42.3574 34.6749 45.6667 35.3182 49.3499C35.4175 49.9181 35.2839 50.4999 34.9517 50.9464C34.6196 51.3925 34.1301 51.6484 33.6085 51.6484H31.9693C31.5809 51.6484 31.2662 51.9972 31.2662 52.4278C31.2662 52.8583 31.5809 53.2072 31.9693 53.2072H33.6085C34.5515 53.2072 35.4364 52.7447 36.0364 51.9384C36.6367 51.1317 36.8782 50.0802 36.6988 49.0535C36.0198 45.1657 34.1772 41.6582 31.4747 39.07C35.0779 36.1471 37.6494 31.7505 38.4593 26.6869C40.5187 26.447 42.1292 24.511 42.1292 22.1657C42.1292 19.93 40.6474 18.0511 38.7155 17.6848ZM3.47455 25.0709C2.28974 24.7567 1.40606 23.5738 1.40606 22.1656C1.40606 20.8161 2.22815 19.6648 3.34611 19.2999C3.35174 19.5151 3.36243 19.7319 3.37958 19.9503C3.39833 20.1897 3.46058 20.4206 3.55714 20.6324C3.45205 21.5012 3.39833 22.3833 3.39833 23.2589C3.39824 23.8698 3.42496 24.4739 3.47455 25.0709ZM35.8956 13.7138V14.6076C35.8956 14.938 35.6975 15.2311 35.4136 15.3203C33.6056 15.8885 31.9266 16.2016 29.6809 16.3869C29.1361 15.9296 28.5731 15.5425 27.9718 15.2189C31.3729 14.9724 33.5539 14.4872 35.8956 13.7138ZM21.0645 7.14176C22.4992 7.14176 23.6663 8.64829 23.6663 10.5C23.6663 12.3507 22.5006 13.8565 21.0672 13.8584C21.0662 13.8584 21.0654 13.8584 21.0645 13.8584C21.0636 13.8584 21.0627 13.8584 21.0619 13.8584C19.6285 13.8565 18.4628 12.3509 18.4628 10.5C18.4627 8.64829 19.6299 7.14176 21.0645 7.14176ZM21.0477 15.4174C21.0533 15.4174 21.0587 15.4174 21.0644 15.4174H21.0674C21.0725 15.4174 21.0774 15.4174 21.0823 15.4174C24.5264 15.4193 26.6158 15.9423 28.4307 17.3099C26.8808 19.0265 24.2471 19.9965 21.0644 19.9965C17.8817 19.9965 15.2481 19.0265 13.6981 17.31C15.5134 15.9422 17.603 15.4191 21.0477 15.4174ZM12.4483 16.3869C10.2025 16.2016 8.52335 15.8885 6.71548 15.3203C6.4317 15.2311 6.23342 14.9379 6.23342 14.6076V13.7138C8.57491 14.4871 10.7557 14.9722 14.1575 15.2188C13.5561 15.5424 12.9931 15.9295 12.4483 16.3869ZM5.24933 15.9963C5.51464 16.3851 5.88992 16.6811 6.33176 16.82C7.23457 17.1037 8.12229 17.3288 9.05753 17.508C7.88913 18.9877 6.29904 19.9192 5.13523 20.1118C5.01627 20.1315 4.93161 20.0755 4.89139 20.0403C4.84574 20.0004 4.7893 19.9289 4.78039 19.8152C4.66902 18.3924 4.84705 17.0306 5.24933 15.9963ZM8.52054 51.6481C7.99901 51.6481 7.50935 51.3923 7.17738 50.9462C6.84514 50.4997 6.71154 49.9178 6.81082 49.3496C7.45413 45.6664 9.24391 42.3572 11.8693 39.9736C12.6002 40.4695 13.366 40.9082 14.1615 41.2841L14.2835 43.8614C14.3117 44.459 14.6065 44.9968 15.072 45.2999C15.3225 45.463 15.6026 45.5452 15.8834 45.5452C16.1241 45.5452 16.3655 45.4848 16.5892 45.3631L20.3613 43.3124V51.6481H8.52054ZM15.5978 41.8805C16.5129 42.2114 17.4602 42.4623 18.4337 42.6241L15.9699 43.9635C15.8875 44.0083 15.8181 43.9778 15.7843 43.9557C15.7502 43.9336 15.6925 43.8813 15.6877 43.7798L15.5978 41.8805ZM23.6951 42.6241C24.6686 42.4623 25.616 42.2114 26.5311 41.8805L26.4412 43.7798C26.4363 43.8814 26.3786 43.9336 26.3446 43.9557C26.3125 43.9767 26.2483 44.0045 26.1713 43.969C26.1619 43.9642 26.1525 43.9592 26.143 43.9549L23.6951 42.6241ZM28.1469 44.0666C29.3478 44.0666 30.3247 45.3349 30.3247 46.8939C30.3247 48.4529 29.3478 49.7213 28.1469 49.7213C26.9461 49.7213 25.9693 48.4529 25.9693 46.8939C25.9693 46.4142 26.0608 45.9559 26.235 45.5445C26.2386 45.5445 26.2421 45.5451 26.2457 45.5451C26.5265 45.5451 26.8066 45.4629 27.0571 45.2998C27.4596 45.0377 27.734 44.6 27.8193 44.1001C27.9272 44.0789 28.0364 44.0666 28.1469 44.0666ZM21.0645 41.2826C12.0988 41.2826 4.80458 33.1971 4.80458 23.2588C4.80458 22.7257 4.82652 22.19 4.86899 21.657C4.9422 21.6675 5.01598 21.6744 5.09014 21.6744C5.17433 21.6744 5.25898 21.6676 5.34308 21.6537C7.25379 21.3372 9.38256 19.7661 10.6631 17.7646C11.1867 17.8328 11.7332 17.8904 12.3107 17.9387C14.0897 20.2737 17.1814 21.5553 21.0645 21.5553C24.9476 21.5553 28.0392 20.2738 29.8182 17.9387C30.3958 17.8904 30.9423 17.8328 31.466 17.7646C32.7465 19.7661 34.8752 21.3372 36.7861 21.6537C36.8701 21.6676 36.9547 21.6744 37.0389 21.6744C37.1131 21.6744 37.1869 21.6675 37.2601 21.657C37.3025 22.19 37.3245 22.7257 37.3245 23.2588C37.3244 33.1971 30.0302 41.2826 21.0645 41.2826ZM37.3484 19.8154C37.3395 19.929 37.2831 20.0005 37.2374 20.0404C37.1972 20.0756 37.1116 20.1316 36.9936 20.1119C35.8298 19.9193 34.2397 18.9877 33.0712 17.5081C34.0065 17.3288 34.8942 17.1038 35.797 16.8201C36.2389 16.6812 36.6141 16.3852 36.8795 15.9964C37.2818 17.0306 37.4599 18.3925 37.3484 19.8154ZM38.6543 25.0709C38.704 24.474 38.7306 23.8698 38.7306 23.2589C38.7306 22.3833 38.6769 21.5012 38.5718 20.6324C38.6684 20.4207 38.7305 20.1898 38.7493 19.9504C38.7664 19.732 38.7771 19.5151 38.7828 19.2999C39.9007 19.6648 40.7228 20.8161 40.7228 22.1656C40.7229 23.5738 39.8392 24.7567 38.6543 25.0709Z" fill="#747E89"/>
<path d="M23.5055 23.7606C23.2125 23.4779 22.7687 23.5117 22.5134 23.8362C22.1477 24.3014 21.6196 24.5682 21.0645 24.5682C20.5094 24.5682 19.9813 24.3014 19.6156 23.8362C19.3603 23.5117 18.9162 23.478 18.6235 23.7606C18.3309 24.0435 18.3003 24.5358 18.5554 24.8603C19.1883 25.6653 20.1028 26.1271 21.0645 26.1271C22.0262 26.1271 22.9407 25.6654 23.5736 24.8603C23.8287 24.5358 23.7982 24.0435 23.5055 23.7606Z" fill="#747E89"/>
<path d="M15.7716 45.5835H10.7407C9.8579 45.5835 9.13959 46.3796 9.13959 47.3583V48.3379C9.13959 49.3165 9.8579 50.1127 10.7407 50.1127H15.7716C16.6545 50.1127 17.3727 49.3165 17.3727 48.3379V47.3583C17.3727 46.3796 16.6545 45.5835 15.7716 45.5835ZM15.9664 48.3379C15.9664 48.457 15.879 48.5539 15.7716 48.5539H10.7407C10.6333 48.5539 10.5458 48.4569 10.5458 48.3379V47.3583C10.5458 47.2392 10.6333 47.1423 10.7407 47.1423H15.7716C15.879 47.1423 15.9664 47.2393 15.9664 47.3583V48.3379Z" fill="#747E89"/>
</svg>
