<svg width="60" height="60" viewBox="0 0 60 60" fill="none" xmlns="http://www.w3.org/2000/svg">
<path d="M30 42.5002C28.965 42.5002 28.125 41.6602 28.125 40.6252V1.875C28.125 0.839996 28.965 0 30 0C31.035 0 31.875 0.839996 31.875 1.875V40.6252C31.875 41.6602 31.035 42.5002 30 42.5002Z" fill="#3B4256"/>
<path d="M30 42.5002C29.5198 42.5002 29.0401 42.3175 28.6748 41.95L18.6749 31.9501C17.9425 31.2177 17.9425 30.0302 18.6749 29.2974C19.4073 28.5649 20.5948 28.5649 21.3277 29.2974L30.0023 37.9724L38.6774 29.2974C39.4098 28.5649 40.5977 28.5649 41.3301 29.2974C42.0625 30.0302 42.0625 31.2177 41.3301 31.9501L31.3298 41.95C30.9599 42.3175 30.4802 42.5002 30 42.5002Z" fill="#3B4256"/>
<path d="M53.1248 60H6.87515C3.08258 60 0 56.9174 0 53.1249V41.8749C0 40.8399 0.839996 39.9999 1.875 39.9999C2.91 39.9999 3.75 40.8399 3.75 41.8749V53.1249C3.75 54.8474 5.15259 56.25 6.87515 56.25H53.1248C54.8474 56.25 56.25 54.8474 56.25 53.1249V41.8749C56.25 40.8399 57.09 39.9999 58.125 39.9999C59.16 39.9999 60 40.8399 60 41.8749V53.1249C60 56.9174 56.9174 60 53.1248 60Z" fill="#3B4256"/>
</svg>
