<svg width="48" height="48" viewBox="0 0 48 48" fill="none" xmlns="http://www.w3.org/2000/svg">
<path d="M11.2539 9.29184C11.2539 8.5049 10.6136 7.86469 9.82679 7.86469H6.80045C6.01351 7.86469 5.37329 8.5049 5.37329 9.29184V12.3183C5.37329 13.1052 6.0136 13.7454 6.80045 13.7454H9.82688C10.6138 13.7454 11.2539 13.1052 11.2539 12.3183V9.29184H11.2539ZM9.84779 12.3182C9.84779 12.3298 9.83832 12.3392 9.82679 12.3392H6.80045C6.78882 12.3392 6.77935 12.3297 6.77935 12.3182V9.29184C6.77935 9.28022 6.78882 9.27084 6.80045 9.27084H9.82688C9.83841 9.27084 9.84788 9.28031 9.84788 9.29184V12.3182H9.84779Z" fill="#747E89"/>
<path d="M18.7782 9.29184C18.7782 8.5049 18.138 7.86469 17.3511 7.86469H14.3247C13.5378 7.86469 12.8976 8.5049 12.8976 9.29184V12.3183C12.8976 13.1052 13.5379 13.7454 14.3247 13.7454H17.3511C18.1381 13.7454 18.7782 13.1052 18.7782 12.3183V9.29184ZM17.3721 12.3182C17.3721 12.3298 17.3627 12.3392 17.3511 12.3392H14.3247C14.3131 12.3392 14.3036 12.3297 14.3036 12.3182V9.29184C14.3036 9.28022 14.3131 9.27084 14.3247 9.27084H17.3511C17.3627 9.27084 17.3721 9.28031 17.3721 9.29184V12.3182Z" fill="#747E89"/>
<path d="M11.2539 17.0682C11.2539 16.2812 10.6136 15.641 9.82679 15.641H6.80045C6.01351 15.641 5.37329 16.2812 5.37329 17.0682V20.0946C5.37329 20.8816 6.0136 21.5218 6.80045 21.5218H9.82688C10.6138 21.5218 11.2539 20.8816 11.2539 20.0946V17.0682H11.2539ZM9.84779 20.0945C9.84779 20.1061 9.83832 20.1155 9.82679 20.1155H6.80045C6.78882 20.1155 6.77935 20.1061 6.77935 20.0945V17.0682C6.77935 17.0566 6.78882 17.0472 6.80045 17.0472H9.82688C9.83841 17.0472 9.84788 17.0566 9.84788 17.0682V20.0945H9.84779Z" fill="#747E89"/>
<path d="M18.7782 17.0682C18.7782 16.2812 18.138 15.641 17.3511 15.641H14.3247C13.5378 15.641 12.8976 16.2812 12.8976 17.0682V20.0946C12.8976 20.8816 13.5379 21.5218 14.3247 21.5218H17.3511C18.1381 21.5218 18.7782 20.8816 18.7782 20.0946V17.0682ZM17.3721 20.0945C17.3721 20.1061 17.3627 20.1155 17.3511 20.1155H14.3247C14.3131 20.1155 14.3036 20.1061 14.3036 20.0945V17.0682C14.3036 17.0566 14.3131 17.0472 14.3247 17.0472H17.3511C17.3627 17.0472 17.3721 17.0566 17.3721 17.0682V20.0945Z" fill="#747E89"/>
<path d="M9.82679 23.4173H6.80045C6.01351 23.4173 5.37329 24.0575 5.37329 24.8445V27.8709C5.37329 28.6579 6.0136 29.2981 6.80045 29.2981H9.82688C10.6138 29.2981 11.2539 28.6579 11.2539 27.8709V24.8445C11.2539 24.0575 10.6137 23.4173 9.82679 23.4173ZM9.84779 27.8709C9.84779 27.8825 9.83832 27.8919 9.82679 27.8919H6.80045C6.78882 27.8919 6.77935 27.8825 6.77935 27.8709V24.8445C6.77935 24.8329 6.78882 24.8235 6.80045 24.8235H9.82688C9.83841 24.8235 9.84788 24.833 9.84788 24.8445V27.8709H9.84779Z" fill="#747E89"/>
<path d="M17.3511 23.4173H14.3247C13.5378 23.4173 12.8976 24.0575 12.8976 24.8445V27.8709C12.8976 28.6579 13.5379 29.2981 14.3247 29.2981H17.3511C18.1381 29.2981 18.7782 28.6579 18.7782 27.8709V24.8445C18.7782 24.0575 18.1381 23.4173 17.3511 23.4173ZM17.3721 27.8709C17.3721 27.8825 17.3627 27.8919 17.3511 27.8919H14.3247C14.3131 27.8919 14.3036 27.8825 14.3036 27.8709V24.8445C14.3036 24.8329 14.3131 24.8235 14.3247 24.8235H17.3511C17.3627 24.8235 17.3721 24.833 17.3721 24.8445V27.8709Z" fill="#747E89"/>
<path d="M45.764 43.5292H44.7205V37.5881C44.7205 35.2214 43.1345 33.1028 40.8636 32.4361L36.6054 31.186C36.4854 31.0734 36.3471 30.9808 36.1959 30.9135L35.3118 30.5196C35.0617 30.4082 34.795 30.3586 34.5314 30.3668V28.3845C35.9306 27.3647 36.9054 25.7896 37.1166 23.9742C37.8097 23.8029 38.3251 23.1758 38.3251 22.4305V20.5137V16.8352C38.3251 15.5433 37.2938 14.4878 36.0112 14.4487C35.9419 13.1938 34.8991 12.1941 33.6272 12.1941H27.8222C27.2874 12.1941 26.7741 12.2871 26.2965 12.4563C26.3009 12.4107 26.3035 12.3647 26.3035 12.318V9.29175C26.3035 8.50481 25.6633 7.86459 24.8765 7.86459H21.85C21.0631 7.86459 20.4229 8.50481 20.4229 9.29175V12.3182C20.4229 13.1051 21.0632 13.7453 21.85 13.7453H24.3909C23.9173 14.2811 23.5665 14.9275 23.3842 15.6411H21.85C21.0631 15.6411 20.4229 16.2813 20.4229 17.0682V20.0947C20.4229 20.8816 21.0632 21.5218 21.85 21.5218H23.242V22.4306C23.242 22.8032 23.3709 23.1462 23.5862 23.4175H21.8499C21.063 23.4175 20.4228 24.0578 20.4228 24.8447V27.8711C20.4228 28.6581 21.0631 29.2982 21.8499 29.2982H24.8764C25.6633 29.2982 26.3034 28.658 26.3034 27.8711V27.7628C26.5314 27.988 26.7763 28.1958 27.0356 28.3848V30.3633C26.7743 30.357 26.5104 30.4072 26.2636 30.5181L25.3965 30.9074C25.2462 30.9748 25.1089 31.0672 24.9897 31.1794L20.7061 32.4367C18.435 33.1032 16.8489 35.2218 16.8489 37.5887V38.0661C16.8489 38.4544 17.1636 38.7691 17.5519 38.7691C17.9402 38.7691 18.2549 38.4543 18.2549 38.0661V37.5887C18.2549 35.8417 19.4257 34.2778 21.1021 33.7858L24.6097 32.7563C24.6816 32.9552 24.7971 33.1416 24.9559 33.3007L27.3577 35.7056C27.36 35.708 27.3624 35.7103 27.3647 35.7126C27.6621 36.0021 28.0472 36.1485 28.4336 36.1484C28.5238 36.1484 28.614 36.1401 28.7033 36.124L29.2019 36.9805L28.0412 43.5292H22.6549V42.0017C22.6549 41.6134 22.3402 41.2987 21.9519 41.2987C21.5635 41.2987 21.2488 41.6135 21.2488 42.0017V43.5292H18.2552V41.3526C18.2552 40.9642 17.9405 40.6495 17.5522 40.6495C17.1639 40.6495 16.8491 40.9643 16.8491 41.3526V43.5292H13.923V35.3248H14.0113C14.3996 35.3248 14.7144 35.01 14.7144 34.6218C14.7144 34.2335 14.3996 33.9187 14.0113 33.9187H5.54664C5.15832 33.9187 4.84361 34.2336 4.84361 34.6218C4.84361 35.0101 5.15832 35.3248 5.54664 35.3248H5.63495V43.5292H3.08879V6.71278C3.08879 6.12722 3.56523 5.65088 4.1507 5.65088H27.5275C28.1131 5.65088 28.5894 6.12722 28.5894 6.71278V9.56372C28.5894 9.95203 28.9041 10.2668 29.2924 10.2668C29.6807 10.2668 29.9954 9.95194 29.9954 9.56372V6.71278C29.9954 5.45878 29.0551 4.42097 27.8427 4.26562V1.72959C27.8428 0.775875 27.0669 0 26.1131 0H5.56501C4.61129 0 3.83551 0.775875 3.83551 1.72959V4.26562C2.62304 4.42097 1.68273 5.45878 1.68273 6.71278V43.5992C0.718231 43.8471 0.00338745 44.7238 0.00338745 45.7645C0.00338745 46.9972 1.00614 48 2.23886 48H45.7641C46.9967 48 47.9995 46.9972 47.9995 45.7645C47.9995 44.5319 46.9967 43.5292 45.764 43.5292ZM5.56501 1.40616H26.1131C26.2915 1.40616 26.4367 1.55128 26.4367 1.72959V4.24472H5.24157V1.72959C5.24157 1.55119 5.3867 1.40616 5.56501 1.40616ZM43.3145 37.5881V43.5292H40.3186V42.0017C40.3186 41.6134 40.0039 41.2987 39.6156 41.2987C39.2273 41.2987 38.9125 41.6135 38.9125 42.0017V43.5292H33.5291L32.3665 36.9733L32.872 36.0674C32.9662 36.0853 33.0614 36.0951 33.1568 36.0951C33.5404 36.0951 33.9237 35.9504 34.2229 35.663L36.6257 33.3232C36.7909 33.1624 36.9106 32.9696 36.984 32.7627L40.4677 33.7854C42.1437 34.2774 43.3145 35.8412 43.3145 37.5881ZM30.3434 36.1464L29.9007 35.386L30.8435 34.5985L31.6815 35.3152L31.2176 36.1463H30.3434V36.1464ZM34.7395 31.8039L35.6238 32.198C35.6685 32.2178 35.6816 32.2794 35.6446 32.3156L33.2453 34.6522C33.198 34.6973 33.1252 34.6994 33.0756 34.6571L31.9622 33.7051L34.3581 31.85C34.4673 31.7653 34.6135 31.7478 34.7395 31.8039ZM33.6273 13.6002C34.1685 13.6002 34.6088 14.0405 34.6088 14.5817C34.6088 15.283 35.1793 15.8537 35.8808 15.8537H35.9375C36.4787 15.8537 36.9189 16.2939 36.9189 16.8352V19.8106H36.458C36.1993 19.8106 35.9889 19.6002 35.9889 19.3416V18.7C35.9889 17.5784 35.0681 16.7575 34.0545 16.7575C33.8494 16.7575 33.6422 16.7906 33.4394 16.8576C31.7275 17.4234 29.8417 17.4236 28.1274 16.8572C26.8705 16.4419 25.5783 17.3759 25.5783 18.6998V19.3416C25.5783 19.6002 25.3678 19.8106 25.1092 19.8106H24.6482V16.7741C24.6482 15.0241 26.072 13.6002 27.8222 13.6002H33.6273ZM21.8291 12.3181V9.29175C21.8291 9.28012 21.8386 9.27075 21.8502 9.27075H24.8767C24.8882 9.27075 24.8977 9.28022 24.8977 9.29175V12.3182C24.8977 12.3298 24.8882 12.3392 24.8767 12.3392H21.8502C21.8386 12.3391 21.8291 12.3297 21.8291 12.3181ZM21.8291 20.0945V17.0681C21.8291 17.0565 21.8386 17.0471 21.8502 17.0471H23.2422V20.1156H21.8502C21.8386 20.1155 21.8291 20.1061 21.8291 20.0945ZM24.8976 27.8709C24.8976 27.8826 24.8881 27.8919 24.8766 27.8919H21.8501C21.8385 27.8919 21.829 27.8826 21.829 27.8709V24.8445C21.829 24.8329 21.8385 24.8235 21.8501 24.8235H24.6092C24.6853 25.119 24.7817 25.4062 24.8975 25.6831V27.8709H24.8976ZM25.8239 23.5481C25.7906 23.0245 25.355 22.6143 24.8322 22.6143C24.7309 22.6143 24.6484 22.5318 24.6484 22.4304V21.2167H25.1094C26.1433 21.2167 26.9845 20.3755 26.9845 19.3416V18.6998C26.9845 18.3392 27.3359 18.0766 27.6887 18.1931C29.6854 18.8527 31.8845 18.8526 33.8808 18.1927C34.2264 18.0786 34.5829 18.3349 34.5829 18.7V19.3416C34.5829 20.3755 35.4241 21.2167 36.4581 21.2167H36.919V22.4304C36.919 22.5318 36.8365 22.6143 36.7352 22.6143C36.2124 22.6143 35.7768 23.0244 35.7435 23.5484C35.579 26.1577 33.4004 28.2016 30.7837 28.2016C28.167 28.2016 25.9884 26.1577 25.8239 23.5481ZM30.7838 29.6077C31.6083 29.6077 32.3986 29.4488 33.1254 29.1604V31.0259L30.8411 32.7947L28.442 31.002V29.1605C29.1688 29.4488 29.9591 29.6077 30.7838 29.6077ZM25.9512 32.3068C25.9132 32.2687 25.9305 32.2088 25.9727 32.1899L26.8397 31.8007C26.9637 31.7452 27.1082 31.7609 27.2173 31.8423L29.7152 33.7088L28.5146 34.7116C28.4655 34.7526 28.3942 34.7506 28.3476 34.7072L25.9512 32.3068ZM30.5287 37.5525H31.0411L32.101 43.5292H29.4694L30.5287 37.5525ZM7.0411 35.3248H12.5168V43.5292H7.0411V35.3248ZM45.764 46.5938H2.23886C1.78154 46.5938 1.40954 46.2218 1.40954 45.7645C1.40954 45.3072 1.78154 44.9353 2.23886 44.9353H45.7641C46.2214 44.9353 46.5934 45.3073 46.5934 45.7645C46.5934 46.2217 46.2213 46.5938 45.764 46.5938Z" fill="#747E89"/>
</svg>
