<svg width="64" height="64" viewBox="0 0 64 64" fill="none" xmlns="http://www.w3.org/2000/svg">
<path d="M58.5938 26.5938H54.7263C53.1119 26.5938 51.7985 27.9071 51.7985 29.5215C51.7985 31.1357 53.1119 32.4491 54.7263 32.4491H58.5938C60.2081 32.4491 61.5215 31.1357 61.5215 29.5215C61.5215 27.9071 60.2081 26.5938 58.5938 26.5938ZM58.5938 30.5741H54.7263C54.1458 30.5741 53.6735 30.1019 53.6735 29.5215C53.6735 28.941 54.1458 28.4688 54.7263 28.4688H58.5938C59.1743 28.4688 59.6465 28.941 59.6465 29.5215C59.6465 30.1019 59.1743 30.5741 58.5938 30.5741ZM9.27389 26.5938H5.40627C3.79189 26.5938 2.47852 27.9071 2.47852 29.5215C2.47852 31.1357 3.79189 32.4491 5.40627 32.4491H9.27389C10.8883 32.4491 12.2016 31.1357 12.2016 29.5215C12.2016 27.9071 10.8883 26.5938 9.27389 26.5938ZM9.27389 30.5741H5.40627C4.82577 30.5741 4.35352 30.1019 4.35352 29.5215C4.35352 28.941 4.82577 28.4688 5.40627 28.4688H9.27389C9.85439 28.4688 10.3266 28.941 10.3266 29.5215C10.3266 30.1019 9.85439 30.5741 9.27389 30.5741ZM43.6173 43.445C47.7586 39.9864 50.1338 34.9114 50.1338 29.5215C50.1338 27.0901 49.6603 24.7297 48.7265 22.5059C48.5261 22.0285 47.9765 21.8039 47.4993 22.0045C47.0219 22.205 46.7974 22.7544 46.9978 23.2319C47.8344 25.2246 48.2588 27.3407 48.2588 29.5215C48.2588 34.3541 46.1289 38.9045 42.4154 42.0059C40.899 43.2723 40.0293 45.1536 40.0293 47.1675V48.5764H35.6501C35.809 44.3662 37.0364 41.7054 38.4993 38.9379C38.7413 38.4801 38.5663 37.9129 38.1085 37.6709C37.6504 37.4289 37.0834 37.604 36.8415 38.0616C35.3164 40.947 33.938 43.9335 33.7738 48.5764H29.9785C29.8143 43.9336 28.4358 40.947 26.9108 38.0616C26.6688 37.6039 26.1015 37.429 25.6438 37.6709C25.186 37.9128 25.0111 38.4801 25.253 38.9379C26.7158 41.7054 27.9431 44.3662 28.1021 48.5764H23.971V47.1664C23.971 45.1599 23.0896 43.2691 21.5528 41.979C17.9118 38.9222 15.794 34.4474 15.7425 29.7016C15.6955 25.3643 17.356 21.2588 20.418 18.1415C23.478 15.0263 27.5496 13.2939 31.8828 13.2634C36.992 13.2214 41.7169 15.5229 44.8516 19.5611C45.1694 19.9702 45.7583 20.0444 46.167 19.7269C46.576 19.4094 46.6503 18.8205 46.3328 18.4115C42.8639 13.9426 37.647 11.388 32.0015 11.388C31.9578 11.388 31.9134 11.3881 31.8696 11.3885C27.0343 11.4226 22.4923 13.3542 19.0804 16.8277C15.6664 20.3034 13.8151 24.8826 13.8676 29.7221C13.925 35.0154 16.2868 40.0064 20.3471 43.4152C21.4585 44.3482 22.096 45.7156 22.096 47.1666V48.5766H21.6494C20.5571 48.5766 19.553 49.0764 18.8944 49.9478C18.2358 50.8191 18.029 51.9216 18.3271 52.9725L18.9794 55.2713C19.2504 56.2265 19.7733 57.0934 20.4914 57.778C20.8663 58.1354 21.4596 58.1213 21.8169 57.7464C22.1741 57.3716 22.16 56.7781 21.7853 56.421C21.3408 55.9972 21.0111 55.4674 20.8229 54.8833H43.1766C42.689 56.3943 41.2674 57.44 39.6706 57.44H25.2818C24.764 57.44 24.3443 57.8597 24.3443 58.3775C24.3443 58.8952 24.764 59.315 25.2818 59.315H26.4568C26.9046 61.9702 29.219 64 32 64C34.781 64 37.0954 61.9702 37.5431 59.3146H39.6703C42.1451 59.3146 44.3453 57.6517 45.0208 55.271L45.673 52.9721C45.9713 51.9214 45.7644 50.8189 45.1059 49.9475C44.4473 49.076 43.4431 48.5762 42.3509 48.5762H41.9043V47.1675C41.9041 45.711 42.5286 44.3541 43.6173 43.445ZM32 62.125C30.257 62.125 28.7881 60.929 28.3709 59.3146H35.629C35.2118 60.929 33.7429 62.125 32 62.125ZM42.3509 50.4512C42.8501 50.4512 43.309 50.6796 43.61 51.078C43.911 51.4762 44.0055 51.9801 43.8693 52.4604L43.7139 53.0079H20.2861L20.1308 52.4604C19.9945 51.9801 20.089 51.4761 20.39 51.0779C20.691 50.6796 21.15 50.4511 21.6491 50.4511H42.3509V50.4512ZM28.2069 27.6151C28.2069 29.8175 29.8529 31.6094 31.8761 31.6094C33.8993 31.6094 35.5453 29.8175 35.5453 27.6151C35.5453 24.8308 32.9741 24.8307 31.8761 24.8307C30.7781 24.8307 28.2069 24.8308 28.2069 27.6151ZM33.6701 27.6151C33.6701 28.7836 32.8654 29.7344 31.876 29.7344C30.8866 29.7344 30.0818 28.7838 30.0818 27.6151C30.0818 27.0096 30.0818 26.7057 31.876 26.7057C33.6701 26.7057 33.6701 27.0096 33.6701 27.6151ZM32 9.72313C33.6144 9.72313 34.9278 8.40975 34.9278 6.79537V2.92775C34.9278 1.31338 33.6144 0 32 0C30.3856 0 29.0723 1.31338 29.0723 2.92775V6.79537C29.0723 8.40975 30.3856 9.72313 32 9.72313ZM30.9473 2.92775C30.9473 2.34725 31.4195 1.875 32 1.875C32.5805 1.875 33.0528 2.34725 33.0528 2.92775V6.79537C33.0528 7.37587 32.5805 7.84812 32 7.84812C31.4195 7.84812 30.9473 7.37587 30.9473 6.79537V2.92775ZM39.5546 25.048V26.5023C39.5546 27.02 39.9743 27.4398 40.4921 27.4398C41.01 27.4398 41.4296 27.02 41.4296 26.5023V25.048C41.4296 24.5303 41.01 24.1105 40.4921 24.1105C39.9743 24.1105 39.5546 24.5303 39.5546 25.048ZM53.7323 10.7168C53.7323 9.93475 53.4278 9.1995 52.8748 8.6465C52.3218 8.0935 51.5866 7.789 50.8046 7.789C50.0225 7.789 49.2873 8.0935 48.7344 8.6465L45.9998 11.3813C45.4466 11.9342 45.1421 12.6695 45.1421 13.4515C45.1421 14.2335 45.4466 14.9688 45.9996 15.5216C46.5525 16.0746 47.2878 16.3791 48.0699 16.3791C48.8519 16.3791 49.5871 16.0745 50.1403 15.5216L52.8748 12.7869C53.4278 12.2341 53.7323 11.4989 53.7323 10.7168ZM51.5489 11.4611L48.8143 14.1959C48.6154 14.3948 48.3511 14.5042 48.0699 14.5042C47.7886 14.5042 47.5244 14.3948 47.3255 14.1959C47.1266 13.997 47.0171 13.7327 47.0171 13.4515C47.0171 13.1704 47.1266 12.906 47.3256 12.7071L50.0604 9.97225C50.2591 9.7735 50.5235 9.664 50.8046 9.664C51.0858 9.664 51.3501 9.7735 51.549 9.97237C51.7479 10.1713 51.8574 10.4355 51.8574 10.7168C51.8573 10.998 51.7478 11.2622 51.5489 11.4611ZM18.0005 15.5218C19.1419 14.3803 19.1419 12.5229 18.0004 11.3814L15.2655 8.6465C14.124 7.50525 12.2668 7.50512 11.125 8.64662C9.98364 9.78812 9.98364 11.6455 11.1251 12.787L13.86 15.5218C14.4129 16.0748 15.1481 16.3792 15.9303 16.3792C16.7123 16.3794 17.4475 16.0748 18.0005 15.5218ZM12.451 11.4613C12.0405 11.0508 12.0405 10.383 12.451 9.9725C12.6563 9.76725 12.9259 9.66463 13.1955 9.66463C13.4651 9.66463 13.7346 9.76725 13.9399 9.97237L16.6748 12.7071C17.0853 13.1176 17.0853 13.7855 16.6748 14.1959C16.4759 14.3948 16.2115 14.5042 15.9303 14.5042C15.6491 14.5042 15.3846 14.3947 15.1859 14.196L12.451 11.4613ZM22.3225 25.048V26.5023C22.3225 27.02 22.7423 27.4398 23.26 27.4398C23.7778 27.4398 24.1975 27.02 24.1975 26.5023V25.048C24.1975 24.5303 23.7778 24.1105 23.26 24.1105C22.7423 24.1105 22.3225 24.5303 22.3225 25.048Z" fill="#747E89"/>
</svg>
