<svg width="120" height="120" viewBox="0 0 120 120" fill="none" xmlns="http://www.w3.org/2000/svg">
<rect width="120" height="120" rx="5" fill="#3B4256"/>
<path d="M93.1233 89H33.8767C32.8092 89 31.8822 88.6348 31.0956 87.9043C30.3652 87.1176 30 86.1905 30 85.1229V33.7929C30 32.7252 30.3652 31.8262 31.0956 31.0957C31.8822 30.3652 32.8092 30 33.8767 30H41.6302C42.6977 30 43.5966 30.3933 44.327 31.18C45.1136 31.9105 45.5069 32.8095 45.5069 33.8771V77.3686H73.1497V33.7929C73.1497 32.7252 73.5149 31.8262 74.2453 31.0957C75.0319 30.3652 75.9589 30 77.0264 30H84.7799C85.8474 30 86.7463 30.3933 87.4767 31.18C88.2633 31.9105 88.6566 32.8095 88.6566 33.8771V77.3686H93.1233C94.1908 77.3686 95.0897 77.7619 95.8201 78.5486C96.6067 79.279 97 80.1781 97 81.2457V85.1229C97 86.1905 96.6067 87.1176 95.8201 87.9043C95.0897 88.6348 94.1908 89 93.1233 89Z" fill="white"/>
</svg>
