<svg width="435" height="434" viewBox="0 0 435 434" fill="none" xmlns="http://www.w3.org/2000/svg">
<path d="M101.023 204.26C108.652 205.941 126.564 209.919 140.828 213.099L166.762 218.883L169.792 228.616C171.696 234.731 175.991 241.699 181.343 247.358L189.864 256.365L181.336 294.488C176.646 315.455 172.508 333.327 172.141 334.203C171.766 335.099 164.185 331.938 154.819 326.981C109.444 302.968 83.3602 256.824 86.7836 206.623C87.1516 201.227 87.2146 201.217 101.023 204.26ZM206.882 197.121C223.675 190.932 238.443 207.357 230.867 223.799C225.281 235.923 212.155 239.158 200.971 231.166C188.975 222.594 192.476 202.43 206.882 197.121ZM67.8167 163.417C70.3649 165.873 75.1168 169.111 78.3765 170.613C84.4898 173.429 84.7155 174.267 82.0475 184.232C80.6033 189.627 79.7632 190.122 72.175 190.058C61.8029 189.969 55.2203 192.663 54.9306 197.113C54.747 199.934 56.7532 201.308 66.607 205.11L78.5051 209.7L78.6001 216.669C78.6948 223.625 78.6757 223.645 67.5821 228.254C54.1596 233.831 52.001 238.378 61.2594 241.573C64.7418 242.774 70.4233 243.629 73.885 243.473C79.9253 243.201 80.2934 243.499 83.017 250.865L85.8549 258.54L79.765 262.025C59.3433 273.711 63.4369 284.853 85.7631 278.35L92.0676 276.514L95.897 282.97C98.0032 286.52 99.8721 289.655 100.05 289.936C100.228 290.217 97.7738 292.834 94.596 295.753C88.0164 301.795 83.9837 311.422 86.8975 314.131C87.9768 315.134 94.083 313.902 100.467 311.393C111.837 306.925 112.18 306.931 117.318 311.719C122.295 316.358 122.37 316.967 118.792 323.673C112.203 336.022 111.136 340.267 114.081 342.414C117.325 344.78 124.338 341.683 132.304 334.366C136.957 330.094 138.523 329.681 141.307 331.995C143.16 333.536 146.052 335.443 147.732 336.233C149.413 337.023 150.309 338.709 149.725 339.978C149.14 341.247 147.994 346.927 147.178 352.599C145.199 366.363 149.542 368.763 158.806 359.024C162.418 355.228 166.034 350.687 166.842 348.933C167.65 347.179 169.396 346.244 170.721 346.854C172.046 347.465 175.822 348.608 179.111 349.394C184.151 350.598 184.847 351.352 183.538 354.192C182.684 356.045 182.59 361.726 183.328 366.817C184.301 373.527 185.674 376.252 188.323 376.723C192.182 377.411 194.615 374.055 199.741 360.971C202.514 353.893 203.025 353.555 209.785 354.324C216.763 355.118 216.991 355.375 220.983 366.921C223.223 373.404 226.255 378.846 227.718 379.014C231.67 379.469 236.368 370.149 236.686 361.221C236.839 356.909 237.234 353.343 237.564 353.296C237.893 353.249 241.49 352.633 245.557 351.926L252.953 350.643L255.653 356.628C259.26 364.622 265.716 371.463 269.247 371.032C272.779 370.601 274.023 361.449 271.999 350.78L270.652 343.686L278.331 340.856C285.699 338.141 286.165 338.227 289.883 342.995C292.013 345.728 296.355 349.491 299.531 351.357C307.975 356.319 310.029 351.724 305.547 337.897C301.842 326.47 301.845 326.442 307.194 321.994L312.553 317.539L323.773 323.6C333.066 328.62 335.414 329.252 337.438 327.28C340.633 324.168 338.404 317.414 331.597 309.587C326.617 303.861 326.448 302.901 329.61 298.298C335.452 289.794 336.235 289.422 342.348 292.239C350.497 295.993 360.841 296.738 362.253 293.671C363.584 290.783 353.637 278.458 347.716 275.659C344.247 274.02 344.202 272.911 347.333 266.117C350.464 259.321 351.457 258.539 355.898 259.375C361.049 260.345 376.154 258.788 376.868 257.213C378.677 253.226 375.357 249.548 365.76 244.909L355.094 239.753L356.175 232.072C357.144 225.185 357.697 224.357 361.524 224.068C368.53 223.539 379.758 218.796 381.148 215.778C383.146 211.441 379.36 208.953 367.401 206.744L356.451 204.722L355.507 197.038L354.562 189.354L361.108 186.677C376.168 180.517 380.523 172.498 370.154 170.02C366.925 169.248 361.236 169.191 357.514 169.894C350.486 171.22 349.023 170.207 345.219 161.383C343.151 156.585 343.331 155.896 347.256 153.618C354.215 149.58 361.506 139.936 360.484 136.12C359.758 133.406 358.272 132.981 351.799 133.636C347.504 134.07 341.939 135.708 339.431 137.275L334.872 140.124L329.526 133.344C325.458 128.185 324.8 125.995 326.775 124.18C328.202 122.868 331.485 118.249 334.071 113.916C337.948 107.421 338.322 105.576 336.205 103.406C333.695 100.833 322.197 104.379 313.967 110.265C311.318 112.159 309.848 111.798 305.381 108.152C300.208 103.93 300.128 103.344 303.408 93.5582C307.395 81.6611 307.334 78.7486 303.058 76.7783C299.976 75.3582 290.761 82.0676 286.1 89.1253C284.414 91.6787 282.33 91.771 276.422 89.5541C269.876 87.0978 268.989 86.1343 269.625 82.1781C271.462 70.767 270.665 61.853 267.685 60.4803C263.409 58.51 261.156 60.3562 254.703 71.1171C249.395 79.9687 248.898 80.2892 242.327 79.0998C236.653 78.0728 235.423 77.1905 235.142 73.9456C234.269 63.866 229.494 52.8215 225.906 52.5854C222.881 52.3864 221.723 53.8693 219.304 61.0368C217.69 65.8178 216.313 71.3146 216.243 73.2518C216.146 75.9323 214.055 76.8555 207.489 77.1153L198.863 77.4567L198.066 72.1399C197.628 69.2157 195.256 63.9211 192.796 60.3741C189.087 55.0281 187.799 54.1749 185.264 55.3863C181.699 57.0898 179.106 68.898 180.558 76.8114C181.377 81.2745 180.971 81.8594 175.979 83.405C166.801 86.247 165.079 85.7928 161.521 79.5895C159.637 76.3034 155.897 72.0163 153.212 70.0627C144.592 63.7912 141.326 72.3125 146.429 87.7618L148.647 94.4776L142.192 98.7525L135.738 103.027L127.085 96.0175C117.578 88.3152 113.285 87.1004 111.242 91.5344C109.663 94.9613 115.905 111.508 119.381 113.109C121.386 114.033 120.802 115.238 115.808 120.482L109.838 126.75L99.0652 122.028C89.3788 117.782 84.4219 117.658 82.5707 121.614C81.8381 123.18 90.4695 135.674 94.5532 138.959C98.0742 141.792 98.1254 143.055 94.9942 149.851C91.8639 156.645 90.9918 157.331 87.4917 155.76C81.5169 153.077 65.6849 153.524 64.3539 156.413C63.7102 157.81 65.2684 160.962 67.8167 163.417ZM109.938 145.348C128.593 117.951 159.75 97.8342 191.742 92.5301C206.403 90.0994 223.903 89.9619 226.352 92.2582C227.195 93.0481 223.999 110.943 219.25 132.025L210.616 170.356L200.693 173.795C189.891 177.538 183.454 181.915 177.938 189.266L174.381 194.005L135.508 185.129C114.127 180.247 96.047 175.97 95.3301 175.624C93.6618 174.819 102.88 155.713 109.938 145.348ZM257.41 98.4555C265.137 99.9104 289.656 115.899 301.213 127.019C318.889 144.026 331.098 166.885 335.855 191.876C339.232 209.621 339.154 230.492 335.711 230.078C334.366 229.916 316.408 225.944 295.804 221.25L258.342 212.717L256.333 205.482C253.649 195.813 245.776 183.373 240.927 181.139C238.77 180.145 236.691 177.994 236.308 176.358C235.924 174.722 239.098 158.057 243.362 139.324C247.625 120.592 251.423 103.525 251.801 101.397C252.318 98.4844 253.703 97.7577 257.41 98.4555ZM224.652 257.9C233.172 255.844 242.806 249.404 248.874 241.708C252.734 236.812 250.275 236.567 291.813 245.982C309.797 250.058 326.63 253.797 329.219 254.291L333.927 255.189L325.207 271.117C320.411 279.877 313.512 290.603 309.877 294.952C285.106 324.584 248.291 341.341 210.082 340.376C200.4 340.131 199.591 339.835 199.695 336.567C199.757 334.618 203.151 318.33 207.238 300.371C211.325 282.412 215.014 265.968 215.436 263.828C215.982 261.058 218.638 259.35 224.652 257.9Z" fill="#F2F5F9"/>
</svg>
