<svg width="296" height="299" viewBox="0 0 296 299" fill="none" xmlns="http://www.w3.org/2000/svg">
<path d="M208.448 229.837C207.503 224.776 204.926 217.817 202.72 214.372C198.089 207.139 198.316 206.271 207.008 198C212.877 192.416 213.907 192.262 218.166 196.33C223.781 201.693 240.14 203.28 243.386 198.777C246.15 194.941 235.819 182.425 227.85 179.955C220.762 177.759 219.985 175.493 222.499 164.356C224.685 154.669 224.894 154.463 231.356 155.648C239.142 157.075 255.552 148.148 254.308 143.161C253.464 139.775 233.371 134.028 227.474 135.486C224.907 136.121 223.01 133.898 219.835 126.533C215.723 116.998 215.821 116.601 223.507 111.68C233.413 105.338 239.361 96.1332 236.47 91.6186C233.937 87.6629 220.505 89.8387 211.377 95.6833C206.013 99.1174 204.415 98.747 197.695 92.5115C190.247 85.6009 190.18 85.2971 194.519 78.1598C199.313 70.2741 199.816 54.5237 195.345 52.3009C191.933 50.6049 182.923 59.0719 176.978 69.5614C172.656 77.1857 172.425 77.2803 163.33 75.139C154.236 72.9977 154.062 72.8077 153.094 63.9379C151.547 49.7703 146.702 39.391 142.059 40.297C136.758 41.3315 132.564 53.5031 133.913 63.9384C134.991 72.2815 134.787 72.5571 125.364 75.4813C116.839 78.1272 115.243 77.7457 111.702 72.2149C105.675 62.8021 94.3145 54.7889 90.4784 57.2451C86.1264 60.0315 87.922 71.0671 94.3647 81.1297C99.3098 88.8532 99.2253 89.3546 91.6646 97.1585C85.1603 103.872 83.5312 104.701 81.8886 102.136C79.1468 97.8536 56.6981 92.9172 54.271 96.0629C51.2061 100.035 62.6527 115.521 70.2813 117.723C76.6125 119.55 76.7227 119.831 74.9505 129.616C72.9133 140.865 71.328 142.574 64.036 141.385C55.8365 140.048 41.5926 146.778 42.6162 151.506C43.8182 157.057 59.2987 162.966 66.4811 160.616C71.9294 158.833 72.8062 159.437 75.9718 167.148C80.6603 178.569 80.5301 179.46 73.516 183.951C65.4495 189.115 56.7183 202.296 59.0015 205.862C61.216 209.321 75.2797 206.585 84.007 200.997C91.3325 196.307 92.1512 196.532 100.552 205.56C106.212 211.642 106.394 212.792 102.602 218.476C97.5502 226.045 96.5464 239.214 100.778 242.398C105.234 245.751 114.556 238.838 119.373 228.607L123.527 219.785L133.655 222.17L143.783 224.555L144.082 234.642C144.457 247.324 151.278 258.919 156.425 255.623C160.931 252.738 164.73 237.713 162.753 230.595C161.465 225.96 162.392 224.79 169.635 221.91C180.919 217.424 181.728 217.579 186.573 225.146C192.335 234.145 204.052 242.952 207.407 240.804C208.924 239.833 209.392 234.897 208.448 229.837ZM155.978 170.612C143.009 174.983 128.994 165.81 126.26 151.163C124.389 141.142 127.529 134.516 137.031 128.432C150.713 119.673 170.097 130.77 171.69 148.274C172.106 152.841 164.382 168.392 161.45 168.891C161.047 168.959 158.585 169.734 155.978 170.612Z" fill="#F2F5F9"/>
</svg>
