<svg width="369" height="370" viewBox="0 0 369 370" fill="none" xmlns="http://www.w3.org/2000/svg">
<path d="M186.942 205.177C179.991 206.703 171.945 203.938 166.225 198.057C150.87 182.27 164.255 156.381 185.694 160.4C209.918 164.941 210.893 199.92 186.942 205.177ZM249.488 173.189L225.559 174.025L222.877 166.765C218.458 154.799 205.796 144.096 188.611 137.799C185.385 136.616 184.345 131.887 182.953 112.067L181.248 87.7845L191.762 89.0413C206.919 90.8533 227.361 100.029 240.122 110.748C254.34 122.69 269.104 145.793 272.405 161.262C273.657 167.13 274.397 172.026 274.049 172.142C273.701 172.258 262.649 172.729 249.488 173.189ZM224.222 267.846C218.271 270.85 209.363 274.051 204.427 274.958L195.452 276.608L193.633 252.302L191.813 227.996L202.444 222.076C214.775 215.21 221.653 206.785 224.545 195.003L226.524 186.939L241.803 186.132C250.206 185.688 261.384 185.131 266.643 184.894L276.204 184.463L274.592 196.137C270.098 228.684 252.684 253.476 224.222 267.846ZM166.132 274.97C138.768 269.467 112.936 249.88 100.176 224.959C94.2344 213.354 89.7483 200.425 90.1878 196.172C90.3293 194.802 100.99 193.114 113.879 192.42L137.313 191.158L143.324 201.792C150.292 214.122 158.958 221.395 170.503 224.602C174.866 225.813 178.645 227.646 178.902 228.674C180.47 234.944 183.09 276.007 181.977 276.855C181.235 277.421 174.104 276.573 166.132 274.97ZM244.014 294.988C243.203 289.833 241.371 283.961 239.943 281.941C237.62 278.657 238.234 277.725 245.74 273.135C253.486 268.397 254.503 268.353 258.922 272.562C265.051 278.399 275.89 282.866 278.849 280.774C281.879 278.632 276.364 264.314 270.257 258.465C265.665 254.068 265.709 253.455 271.12 246.42C275.993 240.086 277.202 239.298 279.439 241.003C283.422 244.039 301.814 246.489 303.477 244.206C305.88 240.906 298.739 230.73 290.8 226.142L283.395 221.862L285.391 214.201C287.845 204.783 289.511 203.42 296.525 205.1C302.352 206.495 314.106 202.304 315.767 198.239C317.064 195.065 302.284 186.994 295.042 186.921L289.681 186.867L288.146 177.107C286.827 168.723 287.245 167.276 291.112 166.844C297.066 166.179 310.997 156.227 310.74 152.822C310.462 149.155 297.77 146.521 289.006 148.311C282.528 149.634 281.515 149.15 278.746 143.41C273.876 133.314 273.691 131.862 277.16 131.018C281.959 129.851 293.714 112.673 291.681 109.798C289.227 106.326 277.227 108.326 270.045 113.403C263.746 117.857 262.919 117.637 254.674 109.318C250.22 104.824 250.167 103.876 254.073 98.4884C259.568 90.9096 261.095 79.3177 256.969 76.5005C254.512 74.8228 252.254 75.7353 246.303 80.8114C242.151 84.3529 237.925 88.705 236.912 90.4826C235.551 92.8707 232.9 92.7048 226.761 89.8473L218.453 85.98L219.594 77.0124C221.3 63.6144 220.018 57.959 215.175 57.5102C210.283 57.0568 203.583 65.7819 201.884 74.8203C200.764 80.7757 200.739 80.7883 191.493 79.9043L182.225 79.0181L180.683 70.7417C178.824 60.7576 172.834 51.7019 168.747 52.6962C165.664 53.4463 162.464 65.5117 162.74 75.3443C162.891 80.7018 162.505 81.0654 154.915 82.7145C147.085 84.4156 146.802 84.2625 140.313 74.8062C135.51 67.8067 132.277 64.9021 128.519 64.211C123.583 63.3032 123.333 63.5717 123.118 69.994C122.994 73.6983 123.843 79.0159 125.004 81.811C126.166 84.6062 127.52 88.0879 128.012 89.5481C128.556 91.1612 125.883 94.3414 121.201 97.6517C114.49 102.396 113.156 102.621 110.874 99.3934C108.232 95.6569 91.996 86.7032 90.2441 88.0167C86.1296 91.1015 87.2243 96.3604 94.0005 106.064L101.383 116.636L96.5369 124.193C92.7447 130.107 91.1977 131.375 89.4246 130.023C88.1784 129.074 82.0544 127.324 75.8158 126.137C66.553 124.373 64.2937 124.686 63.4957 127.844C62.3868 132.232 68.6668 139.312 78.3953 144.642C84.1577 147.799 84.3027 148.263 82.1823 156.758L79.9774 165.592L72.035 165.25C62.7654 164.851 51.6172 168.98 51.8993 172.709C52.177 176.381 68.0764 184.488 73.7569 183.854C78.5531 183.318 78.5589 183.327 79.6875 192.978C80.5093 200.007 79.8582 202.805 77.2978 203.25C75.3622 203.586 69.5328 206.379 64.3436 209.457C55.9855 214.414 55.1801 215.436 57.287 218.416C60.149 222.464 70.3122 224.315 78.5131 222.282C84.6532 220.76 88.1413 223.692 91.8402 233.484C93.2354 237.177 92.3831 239.018 87.7662 242.282C80.8602 247.165 74.9782 257.868 77.3541 261.229C79.5092 264.277 91.5563 261.696 98.6775 256.661C104.536 252.52 107.749 253.86 114.452 263.24C116.875 266.631 116.889 268.875 114.503 271.696C109.637 277.447 107.074 288.832 109.782 292.663C111.783 295.492 113.401 295.174 119.714 290.71C123.862 287.777 128.558 283.398 130.149 280.979C132.686 277.121 134.068 277.071 141.391 280.575L149.741 284.57L148.358 291.812C146.397 302.083 148.224 312.536 152.108 313.264C155.986 313.991 165.49 302.206 165.864 296.207C166.237 290.215 169.137 289.013 178.485 290.973C186.215 292.594 186.829 293.133 187.204 298.617C187.858 308.181 193.808 318.949 197.891 317.956C202.038 316.947 206.067 305.156 204.976 297.223C204.071 290.645 204.935 289.762 214.829 287.145C221.245 285.449 222.303 285.862 224.469 290.907C225.808 294.025 229.637 299.351 232.978 302.743C241.229 311.12 246.021 307.752 244.014 294.988ZM112.749 179.611C100.53 180.186 89.9551 180.554 89.2499 180.429C85.6677 179.795 93.1308 149.054 100.092 135.772C106.774 123.022 109.998 119.198 122.479 109.225C134.423 99.6811 139.734 96.7112 151.839 92.8082C159.967 90.1875 167.166 88.8183 167.835 89.7655C168.936 91.3228 172.217 128.319 171.919 135.816C171.829 138.085 169.859 139.534 164.57 141.222C155.153 144.227 143.584 157.16 140.236 168.424C138.89 172.955 137.153 177.09 136.377 177.613C135.602 178.137 124.969 179.036 112.749 179.611Z" fill="#F2F5F9"/>
</svg>
