<svg width="350" height="352" viewBox="0 0 350 352" fill="none" xmlns="http://www.w3.org/2000/svg">
<path d="M215.076 294.771C213.288 286.581 209.119 267.336 205.812 252.005L199.8 224.13L207.93 216.805C213.037 212.203 217.902 204.888 221.015 197.13L225.97 184.78L266.974 175.971C289.526 171.126 308.812 167.133 309.831 167.097C310.873 167.061 311.197 175.869 310.572 187.224C307.543 242.235 274.267 288.381 223.778 307.589C218.351 309.654 218.313 309.597 215.076 294.771ZM160.555 194.798C146.975 181.21 156.356 159.439 175.792 159.439C190.125 159.439 199.176 170.78 196.408 185.271C193.439 200.812 172.204 206.455 160.555 194.798ZM190.17 345.479C191.419 341.893 192.442 335.807 192.442 331.955C192.442 324.732 193.157 324.136 204.073 322.261C209.982 321.246 210.843 321.842 214.189 329.267C218.762 339.417 224.346 344.623 228.816 342.907C231.649 341.819 232.087 339.246 231.367 327.935L230.498 314.276L237.25 311.054C243.99 307.838 244.019 307.848 253.497 316.59C264.966 327.168 270.37 327.23 269.325 316.772C268.932 312.838 267.213 306.916 265.506 303.612C262.526 297.847 262.651 297.354 268.61 291.392L274.819 285.179L280.953 289.55C301.523 304.206 310.549 295.212 294.178 276.372L289.555 271.051L294.129 264.42C296.645 260.772 298.862 257.543 299.056 257.243C299.25 256.944 302.905 258.16 307.178 259.947C316.026 263.647 327.225 263.254 328.557 259.197C329.05 257.695 325.106 252.297 319.791 247.201C310.326 238.126 310.178 237.788 312.538 230.63C314.826 223.696 315.385 223.349 323.533 223.825C338.534 224.701 343.152 223.835 343.923 220C344.773 215.776 338.602 210.332 327.889 205.852C321.632 203.236 320.526 201.895 321.532 198.143C322.201 195.644 322.762 191.969 322.777 189.976C322.793 187.984 324.033 186.353 325.534 186.353C327.034 186.353 333.087 184.919 338.984 183.167C353.295 178.914 353.684 173.604 340.026 168.948C334.701 167.132 328.649 165.647 326.575 165.647C324.502 165.647 322.805 164.366 322.805 162.8C322.805 161.234 322.223 157.041 321.512 153.482C320.422 148.028 320.845 147.012 324.202 147.012C326.393 147.012 331.975 144.553 336.607 141.547C342.713 137.586 344.752 135.023 344.022 132.23C342.959 128.159 338.594 127.296 323.533 128.175C315.385 128.651 314.826 128.304 312.538 121.37C310.178 114.212 310.326 113.874 319.791 104.799C325.106 99.7034 329.05 94.3051 328.557 92.8025C327.225 88.7462 316.026 88.3535 307.178 92.0528C302.905 93.8395 299.25 95.0563 299.056 94.7566C298.862 94.4569 296.645 91.2275 294.129 87.5802L289.555 80.9485L294.178 75.6282C300.352 68.5225 304.122 59.1585 302.116 55.9103C300.108 52.6608 290.625 55.5589 281.132 62.3229L274.819 66.821L268.61 60.608C262.651 54.6456 262.526 54.1529 265.506 48.3878C267.213 45.0838 268.932 39.162 269.325 35.2283C270.37 24.7696 264.966 24.8316 253.497 35.4097C244.019 44.1525 243.99 44.1621 237.25 40.9458L230.498 37.7239L231.367 24.0654C232.087 12.7535 231.649 10.1811 228.816 9.09344C224.346 7.37703 218.762 12.5834 214.189 22.7327C210.843 30.1578 209.982 30.7541 204.073 29.7392C193.157 27.8641 192.442 27.2681 192.442 20.0446C192.442 10.4161 188.52 0 184.896 0C181.481 0 173.932 15.2306 173.864 22.2588C173.824 26.3761 172.762 26.9176 164.731 26.9176C156.698 26.9176 155.489 26.3004 154.309 21.5966C152.941 16.141 144.635 2.11703 142.779 2.12792C138.079 2.15552 135.984 7.04333 135.772 18.481L135.537 31.1925L127.562 33.5887C120.411 35.7369 119.355 35.5694 117.354 31.9688C113.69 25.3779 104.021 16.5647 100.454 16.5647C95.3267 16.5647 94.6014 21.3727 97.8207 34.0205L100.768 45.602L93.7003 49.9732L86.632 54.3444L81.0801 49.1664C68.3082 37.2546 58.5319 36.611 60.7742 47.8297C61.4726 51.3244 63.973 56.8943 66.3305 60.2072C70.7807 66.461 70.4503 68.3426 63.5553 76.0125C59.8056 80.1836 59.0528 80.3168 55.0688 77.5141C48.005 72.5447 35.3255 69.77 32.0628 72.4795C29.7428 74.4062 29.996 76.045 33.5428 82.0602C35.8961 86.0512 39.9933 90.7406 42.6478 92.4809L47.4742 95.6453L43.2655 103.9C40.0625 110.183 38.2225 111.807 35.5652 110.698C33.6448 109.896 27.6662 108.77 22.2794 108.195C14.2038 107.334 12.2373 107.797 11.0722 110.835C9.6906 114.438 18.3144 124.052 27.7508 129.43C30.7886 131.161 31.0963 132.756 29.5486 138.748C27.7562 145.686 27.2205 146.027 16.2046 147.225C2.81259 148.682 0 150.049 0 155.102C0 158.744 10.6823 164.712 19.658 166.085C22.9054 166.582 23.9318 168.572 24.4243 175.326C24.9701 182.809 24.4295 184.107 20.2857 185.263C8.33381 188.598 0 193.378 0 196.898C0 201.951 2.81259 203.318 16.2046 204.775C27.2205 205.973 27.7562 206.314 29.5486 213.252C31.0963 219.244 30.7886 220.839 27.7508 222.57C18.3144 227.948 9.6906 237.562 11.0722 241.165C12.2373 244.203 14.2038 244.666 22.2794 243.805C27.6662 243.23 33.6448 242.104 35.5652 241.302C38.2225 240.193 40.0625 241.817 43.2655 248.1L47.4742 256.355L42.6478 259.519C39.9933 261.259 35.8961 265.949 33.5428 269.94C29.996 275.955 29.7428 277.594 32.0628 279.52C35.3255 282.23 48.005 279.455 55.0688 274.486C59.0528 271.683 59.8056 271.816 63.5553 275.988C70.4503 283.657 70.7807 285.539 66.3305 291.793C63.973 295.106 61.4726 300.676 60.7742 304.17C58.5319 315.389 68.3082 314.745 81.0801 302.834L86.632 297.656L93.7003 302.027L100.768 306.398L97.8207 317.979C94.5816 330.705 95.3259 335.435 100.567 335.435C104.618 335.435 117.948 321.921 117.948 317.814C117.948 315.444 119.385 315.472 126.743 317.984L135.537 320.988L135.772 333.609C135.984 344.957 138.09 349.845 142.779 349.872C144.635 349.883 152.941 335.859 154.309 330.403C155.489 325.7 156.698 325.082 164.731 325.082C172.762 325.082 173.824 325.624 173.864 329.741C173.932 336.769 181.481 352 184.896 352C186.547 352 188.921 349.066 190.17 345.479ZM153.627 312.539C118.53 306.659 84.9165 285.326 65.3711 256.526C56.4142 243.328 48.4177 226.332 49.5565 222.914C49.9482 221.738 68.8336 216.816 91.524 211.977L132.779 203.179L140.59 211.306C149.093 220.153 156.253 224.462 165.899 226.537L172.119 227.875L180.929 269.751C185.775 292.783 189.727 312.326 189.712 313.18C189.676 315.168 166.905 314.763 153.627 312.539ZM41.6461 189.859C39.5931 181.675 44.1675 150.596 49.8184 134.337C58.4602 109.471 75.2644 87.3051 97.4961 71.4458C113.282 60.1848 133.669 50.8881 134.811 54.4296C135.257 55.8131 139.452 75.1006 144.133 97.2907L152.643 137.636L146.491 142.844C138.269 149.802 129.675 163.063 129.675 168.792C129.675 171.341 128.511 174.333 127.089 175.442C125.666 176.551 107.99 180.941 87.8085 185.198C67.627 189.455 49.2786 193.418 47.0343 194.005C43.9618 194.809 42.6307 193.785 41.6461 189.859ZM211.836 150.183C206.004 142.802 195.396 136.303 185.166 133.846C178.657 132.282 179.523 134.789 170.041 90.0744C165.936 70.7144 162.02 52.6283 161.338 49.883L160.099 44.8917L179.547 46.238C190.244 46.9785 203.802 48.8855 209.676 50.4759C249.699 61.3117 282.579 89.6692 298.804 127.345C302.916 136.892 302.99 137.813 299.757 139.18C297.829 139.995 280.421 144.001 261.074 148.083C241.726 152.165 224.034 155.954 221.758 156.503C218.811 157.214 215.953 155.393 211.836 150.183Z" fill="#F2F5F9"/>
</svg>
