<svg width="102" height="23" viewBox="0 0 102 23" fill="none" xmlns="http://www.w3.org/2000/svg">
<path d="M24.2265 22.8701H1.48787C1.07817 22.8701 0.722373 22.7293 0.420486 22.4477C0.140162 22.1445 0 21.7872 0 21.3757V1.59181C0 1.18032 0.140162 0.833805 0.420486 0.55226C0.722373 0.270716 1.07817 0.129944 1.48787 0.129944H4.46362C4.87332 0.129944 5.21834 0.281544 5.49866 0.584746C5.80055 0.86629 5.95149 1.21281 5.95149 1.62429V18.387H16.5607V1.59181C16.5607 1.18032 16.7008 0.833805 16.9812 0.55226C17.283 0.270716 17.6388 0.129944 18.0485 0.129944H21.0243C21.434 0.129944 21.779 0.281544 22.0593 0.584746C22.3612 0.86629 22.5122 1.21281 22.5122 1.62429V18.387H24.2265C24.6362 18.387 24.9812 18.5386 25.2615 18.8418C25.5634 19.1234 25.7143 19.4699 25.7143 19.8814V21.3757C25.7143 21.7872 25.5634 22.1445 25.2615 22.4477C24.9812 22.7293 24.6362 22.8701 24.2265 22.8701Z" fill="#3B4256"/>
<path d="M35.943 0H39.4686C43.3715 0 46.2934 0.942091 48.2341 2.82627C50.1964 4.6888 51.1775 7.58004 51.1775 11.5C51.1775 15.42 50.1964 18.322 48.2341 20.2062C46.2934 22.0687 43.3715 23 39.4686 23H35.6195C34.1101 23 32.6761 22.7509 31.3176 22.2528C29.9591 21.7547 28.8163 20.9859 27.889 19.9463C26.9834 18.9068 26.5305 17.7048 26.5305 16.3404C26.5305 15.7123 26.7138 15.2684 27.0804 15.0085C27.447 14.7269 27.8028 14.5862 28.1478 14.5862H30.0238C30.9726 14.5862 31.7273 15.1709 32.288 16.3404C32.9995 17.7914 34.2934 18.5169 36.1694 18.5169H39.3068C41.3122 18.5169 42.757 18.1596 43.6411 17.4449C44.5467 16.7086 45.0427 15.4416 45.129 13.6441H36.6545C36.2448 13.6441 35.889 13.5033 35.5872 13.2218C35.3068 12.9186 35.1667 12.5612 35.1667 12.1497V10.8178C35.1667 10.4063 35.3068 10.0598 35.5872 9.77825C35.889 9.47505 36.2448 9.32345 36.6545 9.32345H45.129C45.0211 7.54755 44.5252 6.30226 43.6411 5.58757C42.757 4.85122 41.3122 4.48305 39.3068 4.48305H36.4928C34.6168 4.48305 33.323 5.20857 32.6114 6.65961C32.0508 7.8291 31.296 8.41384 30.3473 8.41384H28.4712C28.2772 8.41384 28.0723 8.38136 27.8567 8.31638C27.6411 8.22975 27.4146 8.04567 27.1774 7.76412C26.9618 7.46092 26.854 7.09275 26.854 6.65961C26.854 5.2952 27.3068 4.09322 28.2125 3.05367C29.1397 2.01412 30.2826 1.24529 31.6411 0.747175C32.9995 0.249058 34.4335 0 35.943 0Z" fill="#3B4256"/>
<path d="M66.1333 4.61299H60.3759V13.3192H66.1333C67.9015 13.3192 69.2384 13.0268 70.1441 12.4421C71.0713 11.8357 71.5349 10.677 71.5349 8.9661C71.5349 7.25518 71.0713 6.10734 70.1441 5.5226C69.2384 4.9162 67.9015 4.61299 66.1333 4.61299ZM55.8799 0.129944H67.9446C74.3058 0.129944 77.4864 3.07533 77.4864 8.9661C77.4864 14.8569 74.3058 17.8023 67.9446 17.8023H60.3759V21.3757C60.3759 21.7872 60.2249 22.1445 59.923 22.4477C59.6427 22.7293 59.2977 22.8701 58.888 22.8701H55.9122C55.5025 22.8701 55.1467 22.7293 54.8449 22.4477C54.5645 22.1445 54.4244 21.7872 54.4244 21.3757V1.62429C54.4244 1.21281 54.5645 0.86629 54.8449 0.584746C55.1252 0.281544 55.4702 0.129944 55.8799 0.129944Z" fill="#3B4256"/>
<path d="M77.5337 21.4082L81.5121 6.30226C82.5903 2.18738 86.0835 0.129944 91.9919 0.129944H100.499C100.887 0.129944 101.21 0.281544 101.469 0.584746C101.728 0.86629 101.857 1.20198 101.857 1.59181V21.4082C101.857 21.8197 101.706 22.1662 101.404 22.4477C101.124 22.7293 100.779 22.8701 100.369 22.8701H97.3935C96.9623 22.8701 96.6065 22.7293 96.3261 22.4477C96.0458 22.1662 95.9057 21.8089 95.9057 21.3757V17.3799H84.6819L83.6145 21.3757C83.5067 21.8089 83.2695 22.1662 82.9029 22.4477C82.5364 22.7293 82.1482 22.8701 81.7385 22.8701H78.6334C78.2237 22.8701 77.911 22.7293 77.6954 22.4477C77.4798 22.1662 77.4258 21.8197 77.5337 21.4082ZM87.2372 7.79661L85.8463 12.8969H95.9057V4.61299H91.4097C90.3962 4.61299 89.5121 4.90537 88.7574 5.49011C88.0027 6.0532 87.4959 6.82203 87.2372 7.79661Z" fill="#3B4256"/>
</svg>
