<svg width="48" height="48" viewBox="0 0 48 48" fill="none" xmlns="http://www.w3.org/2000/svg">
<g clip-path="url(#clip0)">
<path d="M46.1234 13.4403H41.7421C41.6274 10.6004 39.3331 8.31227 36.491 8.20644C36.4741 5.20973 34.0311 2.77698 31.0304 2.77698C30.6085 2.77698 30.1917 2.82496 29.786 2.91981C28.851 1.15027 26.9834 0 24.9527 0C22.9224 0 21.0548 1.15027 20.1198 2.91981C19.7137 2.82496 19.2973 2.77735 18.8754 2.77735C18.57 2.77735 18.2587 2.80408 17.9493 2.85682C17.5666 2.92237 17.3095 3.28565 17.3747 3.66834C17.4403 4.0514 17.8035 4.30848 18.1862 4.24293C18.9066 4.11988 19.6104 4.1891 20.2656 4.42787C20.6267 4.5597 21.0266 4.37696 21.1635 4.01771C21.759 2.45582 23.2817 1.40625 24.9527 1.40625C26.6241 1.40625 28.1468 2.45582 28.7423 4.01771C28.8792 4.37696 29.2788 4.5597 29.6402 4.42787C30.0848 4.26563 30.5525 4.1836 31.0304 4.1836C33.2661 4.1836 35.0851 6.00221 35.0851 8.23793C35.0851 8.43532 35.0701 8.63637 35.0404 8.83595C34.973 9.29299 35.359 9.69033 35.8164 9.63686C35.9801 9.61818 36.1335 9.60903 36.2859 9.60903C38.4465 9.60903 40.2179 11.3079 40.3344 13.4403H9.5711C9.68755 11.3079 11.4589 9.60903 13.6196 9.60903C13.7701 9.60903 13.9279 9.61855 14.0891 9.63686C14.5483 9.68996 14.9324 9.29225 14.8651 8.83595C14.8358 8.63674 14.8207 8.43569 14.8207 8.23793C14.8207 7.11806 15.2686 6.07472 16.082 5.30091C16.3632 5.03321 16.3742 4.58827 16.1069 4.30702C15.8392 4.02576 15.3939 4.01441 15.1126 4.28211C14.0253 5.31666 13.4229 6.70936 13.4149 8.20644C10.5723 8.31191 8.27837 10.6 8.16338 13.44H3.78202C2.69657 13.44 1.81327 14.3233 1.81327 15.4087V17.1189C1.81327 18.2047 2.69657 19.0877 3.78202 19.0877H5.13737V25.4847C5.13737 26.4672 5.42375 27.4201 5.96538 28.2404C5.9716 28.2496 5.97819 28.2591 5.98479 28.2682L11.4802 35.7697H6.02397V34.5561C6.02397 33.5816 5.23149 32.7888 4.257 32.7888H1.86087C0.886385 32.7888 0.0939026 33.5816 0.0939026 34.5561V43.0273C0.0939026 44.0018 0.886385 44.7943 1.86087 44.7943H4.257C5.23149 44.7943 6.02434 44.0018 6.02434 43.0273V41.8137H7.94182V43.0526C7.94182 47.1289 12.607 49.4272 15.8366 47.0201C19.0567 49.425 23.734 47.1369 23.734 43.0526V41.8137H26.3271V43.0526C26.3271 47.1289 30.9923 49.4272 34.2219 47.0201C35.8479 48.2345 38.0917 48.3388 39.8407 47.2168C40.1674 47.0069 40.2622 46.5719 40.0527 46.2452C39.8429 45.9182 39.4082 45.8233 39.0812 46.0332C37.9078 46.7861 36.3957 46.7773 35.2345 46.0134C36.5602 44.2501 36.1361 42.5662 36.2181 41.8137H40.713C40.6764 42.7786 40.8287 43.4148 40.475 44.3288C40.3351 44.691 40.5149 45.0982 40.8771 45.2385C41.2393 45.3784 41.6465 45.1982 41.7867 44.8364C42.2617 43.6078 42.0775 42.7296 42.1193 41.8137H43.2512C44.374 41.8137 45.2877 40.9 45.2877 39.7772V37.8062C45.2877 36.6834 44.374 35.7697 43.2512 35.7697H38.4253L43.9207 28.2682C43.9276 28.2591 43.9338 28.2496 43.9401 28.2404C44.4821 27.4201 44.7684 26.4676 44.7684 25.4847V19.0877H46.1234C47.2089 19.0877 48.0922 18.2047 48.0922 17.1189V15.4087C48.0922 14.3233 47.2092 13.4403 46.1234 13.4403ZM4.61772 43.0273C4.61772 43.2265 4.45585 43.3884 4.257 43.3884H1.86087C1.66202 43.3884 1.50016 43.2265 1.50016 43.0273V34.5561C1.50016 34.3569 1.66202 34.1954 1.86087 34.1954H4.257C4.45622 34.1954 4.61808 34.3572 4.61808 34.5561V43.0273H4.61772ZM9.34771 43.0526V41.8137H16.4269V43.0526C16.4269 45.0045 14.8391 46.592 12.8875 46.592C10.9356 46.592 9.34771 45.0045 9.34771 43.0526ZM22.3281 43.0526C22.3281 45.8823 19.1695 47.5398 16.8492 46.0134C18.1716 44.2548 17.7526 42.5362 17.8328 41.8137H22.3281V43.0526ZM34.8119 43.0526C34.8119 45.0045 33.2243 46.592 31.2724 46.592C29.3209 46.592 27.7334 45.0045 27.7334 43.0526V41.8137H34.8119V43.0526ZM43.8815 37.8066V39.7772C43.8815 40.1247 43.5988 40.4074 43.2512 40.4074H6.02397V37.1763H43.2512C43.5988 37.1763 43.8815 37.4591 43.8815 37.8066ZM43.3622 25.4847C43.3622 26.1856 43.1597 26.8653 42.7759 27.4516L36.6821 35.7701H13.2233L7.12956 27.4516C6.74614 26.8653 6.54326 26.1856 6.54326 25.4847V19.0877H43.3622V25.4847ZM46.6859 17.1189C46.6859 17.4291 46.434 17.6814 46.1234 17.6814H3.78202C3.47184 17.6814 3.21952 17.4291 3.21952 17.1189V15.4087C3.21952 15.0985 3.47184 14.8462 3.78202 14.8462H46.1234C46.434 14.8462 46.6859 15.0985 46.6859 15.4087V17.1189Z" fill="#3B4256"/>
</g>
<defs>
<clipPath id="clip0">
<rect width="48" height="48" fill="white"/>
</clipPath>
</defs>
</svg>
