<svg width="48" height="48" viewBox="0 0 48 48" fill="none" xmlns="http://www.w3.org/2000/svg">
<g clip-path="url(#clip0)">
<path d="M35.9208 31.982C34.2735 31.982 32.9332 33.3222 32.9332 34.9695C32.9332 36.6169 34.2735 37.9571 35.9208 37.9571C37.5681 37.9571 38.9084 36.6169 38.9084 34.9695C38.9084 33.3222 37.5681 31.982 35.9208 31.982ZM35.9208 36.5509C35.0488 36.5509 34.3395 35.8415 34.3395 34.9695C34.3395 34.0975 35.0488 33.3882 35.9208 33.3882C36.7927 33.3882 37.5021 34.0975 37.5021 34.9695C37.5021 35.8415 36.7927 36.5509 35.9208 36.5509Z" fill="#747E89"/>
<path d="M9.48225 31.982C7.83488 31.982 6.49463 33.3222 6.49463 34.9695C6.49463 36.6169 7.83488 37.9571 9.48225 37.9571C11.1296 37.9571 12.4699 36.6169 12.4699 34.9695C12.4699 33.3222 11.1296 31.982 9.48225 31.982ZM9.48225 36.5509C8.61028 36.5509 7.90088 35.8415 7.90088 34.9695C7.90088 34.0975 8.61028 33.3882 9.48225 33.3882C10.3542 33.3882 11.0636 34.0975 11.0636 34.9695C11.0636 35.8415 10.3541 36.5509 9.48225 36.5509Z" fill="#747E89"/>
<path d="M46.8914 18.7586C46.7982 18.4675 46.5275 18.2699 46.2218 18.2699H43.8891L43.3366 16.3865C43.3316 16.3699 43.3262 16.3534 43.3201 16.3372C42.774 14.8834 41.3636 13.9065 39.8105 13.9065H30.3768C30.3768 13.0835 30.3768 10.8112 30.3768 9.98653C30.3768 8.75813 29.3775 7.75885 28.1491 7.75885H2.95733C1.72893 7.75885 0.729653 8.75813 0.729653 9.98653V11.209V30.0706C0.287436 30.4057 0 30.9349 0 31.5313V33.8663C0 34.8622 0.810278 35.6725 1.80618 35.6725H4.2583C4.60329 38.2481 6.81363 40.2414 9.48203 40.2414C12.1504 40.2414 14.3609 38.248 14.7058 35.6725H30.6972C31.0422 38.2481 33.2525 40.2414 35.9209 40.2414C38.5893 40.2414 40.7997 38.248 41.1446 35.6725H44.6591C45.655 35.6725 46.4653 34.8622 46.4653 33.8663V30.7754V29.0078C46.4653 26.1843 45.8087 24.7353 44.3016 19.6761H45.7087L46.6271 22.5451C46.7457 22.9155 47.1422 23.1188 47.5112 23.0003C47.8809 22.8819 48.0848 22.4862 47.9663 22.1162L46.8914 18.7586ZM39.8106 15.3127C40.7305 15.3127 41.5616 15.8698 41.9277 16.6535C39.7627 16.6535 32.7441 16.6535 30.3768 16.6535V15.3127H39.8106ZM28.9705 34.2663H14.7073C14.5523 33.1047 13.9931 31.9659 13.0632 31.1036H28.9705V34.2663ZM2.1359 9.98653C2.1359 9.53362 2.50443 9.16509 2.95733 9.16509H28.1491C28.602 9.16509 28.9705 9.53362 28.9705 9.98653V10.5059H17.1938C16.8054 10.5059 16.4907 10.8206 16.4907 11.209C16.4907 11.5974 16.8054 11.9121 17.1938 11.9121H28.9705V29.6974C27.1778 29.6974 3.20868 29.6974 2.13599 29.6974V11.9121H13.9126C14.301 11.9121 14.6158 11.5974 14.6158 11.209C14.6158 10.8206 14.301 10.5059 13.9126 10.5059H2.1359V9.98653ZM1.40624 33.8663V31.5313C1.40624 31.2954 1.59815 31.1035 1.83402 31.1035H5.90098C4.97623 31.9608 4.41251 33.0985 4.2567 34.2662H1.80618C1.58934 34.2663 1.40624 34.0832 1.40624 33.8663ZM9.48203 38.8352C7.35044 38.8352 5.61626 37.101 5.61626 34.9694C5.61626 32.8333 7.35456 31.1036 9.48203 31.1036C11.601 31.1036 13.3478 32.8263 13.3478 34.9694C13.3478 37.101 11.6136 38.8352 9.48203 38.8352ZM30.3768 18.0598H32.4879V23.5159C32.4879 24.4368 33.2371 25.1861 34.158 25.1861H35.2154C35.5109 25.1861 35.8005 25.288 36.0307 25.4729L36.3793 25.7529C36.6822 25.9961 37.1247 25.9477 37.3679 25.6451C37.611 25.3423 37.5627 24.8998 37.26 24.6565L36.9114 24.3765C36.4323 23.9918 35.83 23.7799 35.2154 23.7799H34.158C34.0125 23.7799 33.8941 23.6615 33.8941 23.516V18.0599H42.362C44.2783 24.5932 44.7387 25.5437 44.9657 27.4493H41.1955C40.9001 27.4493 40.6105 27.3474 40.3801 27.1623L39.8189 26.7115C39.5161 26.4684 39.0735 26.5166 38.8303 26.8193C38.5872 27.122 38.6355 27.5646 38.9382 27.8079L39.4994 28.2587C39.9786 28.6435 40.5809 28.8554 41.1955 28.8554H45.0574C45.0579 28.9062 45.0591 28.957 45.0591 29.0078V30.0723H43.9595C43.114 30.0723 42.4261 30.7602 42.4261 31.6057V34.2662H41.1464C40.7977 31.6539 38.551 29.6973 35.9211 29.6973C33.2557 29.6973 31.0397 31.69 30.6958 34.2662H30.3769C30.3768 31.3356 30.3768 19.742 30.3768 18.0598ZM35.9209 38.8352C33.7893 38.8352 32.0552 37.101 32.0552 34.9694C32.0552 32.8378 33.7893 31.1036 35.9209 31.1036C38.0525 31.1036 39.7867 32.8378 39.7867 34.9694C39.7867 37.101 38.0526 38.8352 35.9209 38.8352ZM45.0591 33.8663C45.0591 34.0832 44.876 34.2663 44.6591 34.2663H43.8323V31.6058C43.8323 31.5368 43.8905 31.4786 43.9594 31.4786H45.059V33.8663H45.0591Z" fill="#747E89"/>
<path d="M34.2542 27.7179H34.9105C35.2989 27.7179 35.6136 27.4031 35.6136 27.0147C35.6136 26.6263 35.2989 26.3116 34.9105 26.3116H34.2542C33.8658 26.3116 33.5511 26.6263 33.5511 27.0147C33.5511 27.4031 33.8658 27.7179 34.2542 27.7179Z" fill="#747E89"/>
</g>
<defs>
<clipPath id="clip0">
<rect width="48" height="48" fill="white"/>
</clipPath>
</defs>
</svg>
